<svg t="1685891954930" class="icon" viewBox="0 0 1024 1024" version="1.1" xmlns="http://www.w3.org/2000/svg" p-id="4575" width="32" height="32"><path d="M742.7976809434074 192.43398060562959c-8.876834209185184 6.657625050074073-11.096042154666666 22.19208430933333-4.438417104592592 31.06891851851852 37.72654356859259 48.822585723259266 57.69941993244444 108.74121481481481 57.69941993244444 170.87905185185184 0 113.17963191940738-66.57625414162963 215.26322168414814-170.87905185185184 261.8665994619259-8.876834209185184 4.438417104592592-13.315251313777777 11.096042154666666-13.315251313777777 19.97287636385185v137.5909241742222h-79.89150424177778V509.7807920545185H600.7683384509631c13.315251313777777 0 22.19208430933333-8.876834209185184 22.19208430933333-22.19208552296296s-8.876834209185184-22.19208430933333-22.19208430933333-22.19208430933333h-184.194301952c-13.315251313777777 0-22.19208430933333 8.876834209185184-22.19208552296296 22.19208430933333s8.876834209185184 22.19208430933333 22.19208552296296 22.19208552296296h68.7954620871111v304.03155892148146h-79.8915054554074v-137.5909241742222c0-8.876834209185184-4.438417104592592-17.75366720474074-13.315250100148146-19.97287636385185C290.0791532657778 609.6451726601481 223.50289912414814 507.5615828954074 223.50289912414814 394.381950976c0-157.5638005380741 128.71409117866665-286.2778917167407 286.2778929303704-286.2778917167407 42.164960673185185 0 84.32992134637037 8.876834209185184 122.05646491496294 26.630501413925924 11.096042154666666 4.438417104592592 24.411293468444445 0 28.849710573037036-11.096042154666666 4.438417104592592-11.096042154666666 0-24.411293468444445-11.096042154666666-28.849710573037036-44.384169832296294-22.19208430933333-93.20675555555555-31.06891851851852-142.02934249244444-31.06891851851852-179.75588606103702 0-328.442852389926 148.68696754251854-328.442852389926 330.66206154903705 0 126.49488201955555 71.01467124622222 239.67451393896295 181.97509400651853 295.1547259259259v130.93330033777778c0 19.97287636385185 17.75366720474074 37.72654356859259 37.72654356859259 37.72654356859259h219.70163878874072c8.876834209185184 0 19.97287636385185-4.438417104592592 26.630501413925924-11.096042154666666 6.657625050074073-6.657625050074073 11.096042154666666-15.53445925925926 11.096042154666666-26.630501413925924V689.536676901926c110.9604227602963-55.48021198696296 184.19430316562963-168.65984390637036 184.194301952-295.1547259259259 0-71.01467124622222-22.19208430933333-139.81013333333334-66.576252928-197.50955326577775-6.657625050074073-11.096042154666666-22.19208430933333-13.315251313777777-31.06891851851852-4.438417104592592zM662.906175488 915.8959407407408H356.65540740740744c-13.315251313777777 0-22.19208430933333 8.876834209185184-22.19208430933333 22.19208430933333s8.876834209185184 22.19208430933333 22.19208430933333 22.19208552296296h304.0315601351111c13.315251313777777 0 22.19208430933333-8.876834209185184 22.19208430933333-22.19208552296296s-8.876834209185184-22.19208430933333-19.97287636385185-22.19208430933333z" fill="" p-id="4576"></path></svg>